<svg xmlns="http://www.w3.org/2000/svg" viewBox="0 0 187.23848 57.512035">
  <g aria-label="Monolith Resistor">
    <path d="M25.4 23.4442q0 .5842-.7112 1.27-.6858.6858-1.27.6858h-5.588q-.4064 0-1.1176-.4572L15.494 25.4H9.906q-.4064 0-1.1176-.4572L7.5692 25.4h-5.588q-.6096 0-1.2954-.6858Q0 24.0284 0 23.4188V1.9812Q0 1.2446.7112.635 1.4224 0 2.159 0h18.669q1.4732 0 3.0226 1.4478T25.4 4.3688zm-1.6002-.1778V4.6482q0-.635-.6858-1.524-.6604-.9144-1.27-1.1684-.8382-.3556-1.3208-.3556H2.3622q-.2032 0-.4826.2032t-.2794.381V23.241q0 .1524.2032.3556.2032.2032.3556.2032h5.207q.1778 0 .3556-.1778.2032-.1778.2032-.3556V8.382q0-.1524.1524-.3048t.3048-.1524h.6858q.4572 0 .4572.4826V23.241q0 .1778.2032.3556.2032.2032.381.2032h5.1816q.5588 0 .5588-.5334V8.382q0-.1524.1524-.3048.1778-.1524.3302-.1524h.6604q.4826 0 .4826.4826V23.241q0 .1778.1778.3556.2032.2032.381.2032h5.1816q.1778 0 .381-.1778t.2032-.3556zM44.363481 21.0566q0 1.3208-1.5494 2.8194-1.524 1.524-2.8448 1.524h-8.7122q-1.3716 0-2.8702-1.4986-1.4986-1.4986-1.4986-2.8702V4.3942q0-.3048.3302-1.0922.2794-.7112.508-1.0414.5842-.889 1.651-1.5748Q30.469681 0 31.460281 0h8.3058q1.4986 0 3.048 1.4478t1.5494 2.921zm-1.6256-.3048V4.6482q0-.635-.6604-1.524-.6604-.9144-1.27-1.1684-.8636-.3556-1.3208-.3556h-7.7216q-.1524 0-1.3208.3556-.5588.1778-1.27 1.1684-.6858.9652-.6858 1.5494v16.0528q0 1.016 1.016 2.032 1.0414 1.0414 2.0574 1.0414h8.1026q.9906 0 2.032-1.0414 1.0414-1.016 1.0414-2.0066zm-6.3246-3.7084q-.1016.1524-.4318.4318h-.7366q-.1524-.127-.4318-.4572V8.382q.2286-.4572.6604-.4572h.2794q.4572 0 .6604.4572zM63.512698 23.4442q0 .5842-.7112 1.27-.6858.6858-1.27.6858h-5.588q-.4064 0-1.1176-.4572l-1.2192.4572h-5.588q-.6096 0-1.2954-.6858-.6858-.6858-.6858-1.2954V1.9812q0-.7366.7112-1.3462.7112-.635 1.4478-.635h10.7188q1.4986 0 3.048 1.4478t1.5494 2.921zm-1.6256-.1778V4.6482q0-.635-.6604-1.524-.6604-.9144-1.27-1.1684-.8636-.3556-1.3208-.3556h-10.2362q-.2032 0-.4826.2032t-.2794.381V23.241q0 .1524.2032.3556.2032.2032.3556.2032h5.207q.1778 0 .3556-.1778.2032-.1778.2032-.3556V8.382q0-.1524.1524-.3048t.3048-.1524h.6858q.4572 0 .4572.4826V23.241q0 .1778.2032.3556.2032.2032.381.2032h5.1816q.1778 0 .3556-.1778.2032-.1778.2032-.3556zM82.463481 21.0566q0 1.3208-1.5494 2.8194-1.524 1.524-2.8448 1.524h-8.7122q-1.3716 0-2.8702-1.4986-1.4986-1.4986-1.4986-2.8702V4.3942q0-.3048.3302-1.0922.2794-.7112.508-1.0414.5842-.889 1.651-1.5748Q68.569681 0 69.560281 0h8.3058q1.4986 0 3.048 1.4478t1.5494 2.921zm-1.6256-.3048V4.6482q0-.635-.6604-1.524-.6604-.9144-1.27-1.1684-.8636-.3556-1.3208-.3556h-7.7216q-.1524 0-1.3208.3556-.5588.1778-1.27 1.1684-.6858.9652-.6858 1.5494v16.0528q0 1.016 1.016 2.032 1.0414 1.0414 2.0574 1.0414h8.1026q.9906 0 2.032-1.0414 1.0414-1.016 1.0414-2.0066zm-6.3246-3.7084q-.1016.1524-.4318.4318h-.7366q-.1524-.127-.4318-.4572V8.382q.2286-.4572.6604-.4572h.2794q.4572 0 .6604.4572zM101.6127 23.4442q0 .5842-.7112 1.27-.6858.6858-1.270003.6858h-13.5128q-.6096 0-1.2954-.6858-.6858-.6858-.6858-1.2954V1.9812q0-.7366.7112-1.3462.7112-.635 1.4478-.635h5.207q.7112 0 1.4224.635.7366.635.7366 1.3208v13.3604q0 .1524.2032.3556.2286.2032.381.2032h5.3848q.584203 0 1.270003.6858.7112.6604.7112 1.2446zm-1.625603-.1778v-5.2578q0-.1524-.2032-.3302-.2032-.2032-.3556-.2032h-5.3848q-.6096 0-1.2954-.6604-.6858-.6858-.6858-1.2954V2.159q0-.1778-.2794-.3556-.2794-.2032-.4826-.2032h-4.8006q-.2032 0-.4826.2032t-.2794.381V23.241q0 .1524.2032.3556.2032.2032.3556.2032h13.1318q.5588 0 .5588-.5334zM111.6707 23.4442q0 .5842-.6858 1.27t-1.27.6858h-5.588q-.6096 0-1.2954-.6858-.6858-.6858-.6858-1.2954V9.906q0-.4064.4572-1.1176l-.4572-1.2192v-5.588q0-.7366.7112-1.3462.7112-.635 1.4478-.635h5.207q.7112 0 1.4224.635.7366.635.7366 1.3208v5.6388q0 .4318-.4572 1.0922.4572 1.0922.4572 1.1938zm-1.6002-16.0528V2.159q0-.1778-.2794-.3556-.2794-.2032-.4826-.2032h-4.8006q-.2032 0-.4826.2032t-.2794.381V7.366q0 .1524.2032.3556.2032.2032.3556.2032h5.207q.1778 0 .3556-.1778.2032-.1778.2032-.3556zm0 15.875V10.0838q0-.1778-.2794-.3556t-.4826-.1778h-4.8006q-.2032 0-.4826.2032-.2794.1778-.2794.3556V23.241q0 .1524.2032.3556.2032.2032.3556.2032h5.207q.1778 0 .3556-.1778.2032-.1778.2032-.3556zM131.57279 7.5946q0 .5842-.6858 1.27t-1.27.6858h-1.8796q-.1778 0-.381.1778t-.2032.3556v13.3604q0 .5842-.6858 1.27t-1.27.6858h-5.6134q-.5842 0-1.27-.7112-.6858-.6858-.6858-1.27V10.1092q0-.1524-.2032-.3556-.2032-.2032-.3556-.2032h-1.8796q-.5842 0-1.2954-.6858-.6858-.7112-.6858-1.2954v-5.588q0-.7366.7112-1.3462.7112-.635 1.4478-.635h14.0462q.7112 0 1.4224.635.7366.635.7366 1.3208zm-1.6002-.2032V2.159q0-.1778-.2794-.3556-.2794-.2032-.4826-.2032h-13.6398q-.2032 0-.4826.2032t-.2794.381V7.366q0 .1524.2032.3556.2032.2032.3556.2032h1.905q.6096 0 1.27.6858.6858.6858.6858 1.2954v13.335q0 .1524.2032.3556.2032.2032.3556.2032h5.207q.1778 0 .3556-.1778.2032-.1778.2032-.3556V9.8806q0-.6096.6858-1.27.6858-.6858 1.2954-.6858h1.8796q.1778 0 .3556-.1778.2032-.1778.2032-.3556zM150.37872 23.4442q0 .5842-.7112 1.27-.6858.6858-1.27.6858h-5.588q-.4064 0-1.1176-.4572l-1.2192.4572h-5.588q-.6096 0-1.2954-.6858-.6858-.6858-.6858-1.2954V1.9812q0-.7366.7112-1.3462.7112-.635 1.4478-.635h5.207q.635 0 1.3208.4826Q142.68252 0 142.80952 0h5.588q.6096 0 1.2954.6858.6858.6604.6858 1.27zm-1.6256-.1778V2.159q0-.1524-.2032-.3556-.2032-.2032-.3556-.2032h-5.1816q-.2032 0-.4064.2032-.1778.1778-.1778.381v6.8834q0 .4826-.4572.4826h-.6858q-.4572 0-.4572-.4572V2.159q0-.1778-.2794-.3556-.2794-.2032-.4826-.2032h-4.8006q-.2032 0-.4826.2032t-.2794.381V23.241q0 .1524.2032.3556.2032.2032.3556.2032h5.207q.1778 0 .3556-.1778.2032-.1778.2032-.3556v-6.9596q0-.4318.4572-.4318h.6858q.4572 0 .4572.4572v6.9088q0 .1778.2032.3556.2032.2032.381.2032h5.1816q.5588 0 .5588-.5334zM61.379497 55.55623q0 .5842-.7112 1.27-.6858.6858-1.27.6858h-5.588q-.4064 0-1.1176-.4572l-1.2192.4572h-5.588q-.6096 0-1.2954-.6858-.6858-.6858-.6858-1.2954v-21.4376q0-.7366.7112-1.3462.7112-.635 1.4478-.635h10.7188q1.4986 0 3.048 1.4478t1.5494 2.921v4.826q0 1.4478-2.2098 3.5052.635.762 1.2954 1.4986.9144 1.2192.9144 2.1082zm-1.6256-.1778v-6.6548q0-.635-.6858-1.5748-.6604-.9652-1.2446-1.143-.254-.0762-.9652-.3048-.7112-.2286-.7112-.4826v-.7112q0-.3048.6858-.5334l.9906-.2286q.5588-.1778 1.2446-1.1684.6858-.9906.6858-1.5748v-4.2418q0-.635-.6604-1.524-.6604-.9144-1.27-1.1684-.8636-.3556-1.3208-.3556h-10.2362q-.2032 0-.4826.2032t-.2794.381v21.0566q0 .1524.2032.3556.2032.2032.3556.2032h5.207q.1778 0 .3556-.1778.2032-.1778.2032-.3556v-6.9596q0-.4318.4572-.4318h.6858q.4572 0 .4572.4572v6.9088q0 .1778.2032.3556.2032.2032.381.2032h5.1816q.1778 0 .3556-.1778.2032-.1778.2032-.3556zm-6.3246-13.9446q-.1016.1524-.4318.4064h-.7366q-.1524-.1016-.4318-.4318v-.7112q.2286-.4572.6604-.4572h.2794q.4572 0 .6604.4572zM80.479106 55.55623q0 .5842-.7112 1.27-.6858.6858-1.27.6858h-13.5128q-.6096 0-1.2954-.6858-.6858-.6858-.6858-1.2954v-21.4376q0-.7366.7112-1.3462.7112-.635 1.4478-.635h13.1318q.7112 0 1.4478.635.7366.635.7366 1.3208v5.6388q0 .4318-.4826 1.0922.4826 1.0922.4826 1.1938v5.6388q0 .4572-.4826 1.0922.4826 1.0922.4826 1.1938zm-1.6256-.1778v-5.2578q0-.1524-.2032-.3302-.2032-.2032-.3556-.2032h-6.9088q-.4572 0-.4572-.4318v-.7366q0-.4318.4572-.4318h6.9088q.2032 0 .381-.1778t.1778-.381v-5.2324q0-.1524-.2032-.3302-.2032-.2032-.3556-.2032h-6.9088q-.4572 0-.4572-.4572v-.7112q0-.1524.1524-.3048t.3048-.1524h6.9088q.5588 0 .5588-.5334v-5.2324q0-.1778-.2794-.3556-.2794-.2032-.4826-.2032h-12.7254q-.2032 0-.4826.2032t-.2794.381v21.0566q0 .1524.2032.3556.2032.2032.3556.2032h13.1318q.5588 0 .5588-.5334zM99.429889 53.16863q0 1.3208-1.5494 2.8194-1.524 1.524-2.8448 1.524h-11.0998q-.6096 0-1.2954-.6858-.6858-.6858-.6858-1.2954v-5.588q0-.508.4826-1.0922.508-.6096 1.016-.7366-.3556-.1524-.9398-1.3208-.5588-1.1684-.5588-1.6002v-8.6868q0-.3048.3302-1.0922.2794-.7112.508-1.0414.5842-.889 1.651-1.5748 1.0922-.6858 2.0828-.6858h10.7188q.7112 0 1.4478.635.7366.635.7366 1.3208v5.6388q0 .4826-.5334 1.0922-.508.6096-.9906.7112.254.2032.8382 1.1684.6858 1.143.6858 1.7272zm-1.6256-.3048v-8.1534q0-.9652-1.0668-2.0066-1.0414-1.0414-2.0066-1.0414h-4.3942q-.5334-.2032-.5334-.8128 0-.6096.5334-.8128h6.9088q.5588 0 .5588-.5334v-4.9784q0-.2032-.2794-.508t-.4826-.3048h-10.2108q-.1524 0-1.3208.3556-.5588.1778-1.27 1.1684-.6858.9652-.6858 1.5494v8.128q0 1.016 1.016 2.0574 1.0414 1.016 2.0574 1.016h4.3942q.5334.2032.5334.7874 0 .6096-.5334.8128h-6.9088q-.1778 0-.381.2032-.1778.1778-.1778.3556v5.207q0 .1524.2032.3556.2032.2032.3556.2032h10.6172q.9906 0 2.032-1.0414 1.0414-1.016 1.0414-2.0066zM110.43047 55.55623q0 .5842-.6858 1.27t-1.27.6858h-5.588q-.6096 0-1.2954-.6858-.6858-.6858-.6858-1.2954v-13.5128q0-.4064.4572-1.1176l-.4572-1.2192v-5.588q0-.7366.7112-1.3462.7112-.635 1.4478-.635h5.207q.7112 0 1.4224.635.7366.635.7366 1.3208v5.6388q0 .4318-.4572 1.0922.4572 1.0922.4572 1.1938zm-1.6002-16.0528v-5.2324q0-.1778-.2794-.3556-.2794-.2032-.4826-.2032h-4.8006q-.2032 0-.4826.2032t-.2794.381v5.1816q0 .1524.2032.3556.2032.2032.3556.2032h5.207q.1778 0 .3556-.1778.2032-.1778.2032-.3556zm0 15.875v-13.1826q0-.1778-.2794-.3556t-.4826-.1778h-4.8006q-.2032 0-.4826.2032-.2794.1778-.2794.3556v13.1318q0 .1524.2032.3556.2032.2032.3556.2032h5.207q.1778 0 .3556-.1778.2032-.1778.2032-.3556zM129.44356 53.16863q0 1.3208-1.5494 2.8194-1.524 1.524-2.8448 1.524h-11.0998q-.6096 0-1.2954-.6858-.6858-.6858-.6858-1.2954v-5.588q0-.508.4826-1.0922.508-.6096 1.016-.7366-.3556-.1524-.9398-1.3208-.5588-1.1684-.5588-1.6002v-8.6868q0-.3048.3302-1.0922.2794-.7112.508-1.0414.5842-.889 1.651-1.5748 1.0922-.6858 2.0828-.6858h10.7188q.7112 0 1.4478.635.7366.635.7366 1.3208v5.6388q0 .4826-.5334 1.0922-.508.6096-.9906.7112.254.2032.8382 1.1684.6858 1.143.6858 1.7272zm-1.6256-.3048v-8.1534q0-.9652-1.0668-2.0066-1.0414-1.0414-2.0066-1.0414h-4.3942q-.5334-.2032-.5334-.8128 0-.6096.5334-.8128h6.9088q.5588 0 .5588-.5334v-4.9784q0-.2032-.2794-.508t-.4826-.3048h-10.2108q-.1524 0-1.3208.3556-.5588.1778-1.27 1.1684-.6858.9652-.6858 1.5494v8.128q0 1.016 1.016 2.0574 1.0414 1.016 2.0574 1.016h4.3942q.5334.2032.5334.7874 0 .6096-.5334.8128h-6.9088q-.1778 0-.381.2032-.1778.1778-.1778.3556v5.207q0 .1524.2032.3556.2032.2032.3556.2032h10.6172q.9906 0 2.032-1.0414 1.0414-1.016 1.0414-2.0066zM149.28334 39.70663q0 .5842-.6858 1.27t-1.27.6858h-1.8796q-.1778 0-.381.1778t-.2032.3556v13.3604q0 .5842-.6858 1.27t-1.27.6858h-5.6134q-.5842 0-1.27-.7112-.6858-.6858-.6858-1.27v-13.3096q0-.1524-.2032-.3556-.2032-.2032-.3556-.2032h-1.8796q-.5842 0-1.2954-.6858-.6858-.7112-.6858-1.2954v-5.588q0-.7366.7112-1.3462.7112-.635 1.4478-.635h14.0462q.7112 0 1.4224.635.7366.635.7366 1.3208zm-1.6002-.2032v-5.2324q0-.1778-.2794-.3556-.2794-.2032-.4826-.2032h-13.6398q-.2032 0-.4826.2032t-.2794.381v5.1816q0 .1524.2032.3556.2032.2032.3556.2032h1.905q.6096 0 1.27.6858.6858.6858.6858 1.2954v13.335q0 .1524.2032.3556.2032.2032.3556.2032h5.207q.1778 0 .3556-.1778.2032-.1778.2032-.3556v-13.3858q0-.6096.6858-1.27.6858-.6858 1.2954-.6858h1.8796q.1778 0 .3556-.1778.2032-.1778.2032-.3556zM168.08926 53.16863q0 1.3208-1.5494 2.8194-1.524 1.524-2.8448 1.524h-8.7122q-1.3716 0-2.8702-1.4986-1.4986-1.4986-1.4986-2.8702v-16.637q0-.3048.3302-1.0922.2794-.7112.508-1.0414.5842-.889 1.651-1.5748 1.0922-.6858 2.0828-.6858h8.3058q1.4986 0 3.048 1.4478t1.5494 2.921zm-1.6256-.3048v-16.1036q0-.635-.6604-1.524-.6604-.9144-1.27-1.1684-.8636-.3556-1.3208-.3556h-7.7216q-.1524 0-1.3208.3556-.5588.1778-1.27 1.1684-.6858.9652-.6858 1.5494v16.0528q0 1.016 1.016 2.032 1.0414 1.0414 2.0574 1.0414h8.1026q.9906 0 2.032-1.0414 1.0414-1.016 1.0414-2.0066zm-6.3246-3.7084q-.1016.1524-.4318.4318h-.7366q-.1524-.127-.4318-.4572v-8.636q.2286-.4572.6604-.4572h.2794q.4572 0 .6604.4572zM187.23847 55.55623q0 .5842-.7112 1.27-.6858.6858-1.27.6858h-5.588q-.40639 0-1.11759-.4572l-1.2192.4572h-5.588q-.6096 0-1.2954-.6858-.6858-.6858-.6858-1.2954v-21.4376q0-.7366.7112-1.3462.7112-.635 1.4478-.635h10.71879q1.4986 0 3.048 1.4478t1.5494 2.921v4.826q0 1.4478-2.2098 3.5052.635.762 1.2954 1.4986.9144 1.2192.9144 2.1082zm-1.6256-.1778v-6.6548q0-.635-.6858-1.5748-.6604-.9652-1.2446-1.143-.254-.0762-.9652-.3048-.7112-.2286-.7112-.4826v-.7112q0-.3048.6858-.5334l.9906-.2286q.5588-.1778 1.2446-1.1684.6858-.9906.6858-1.5748v-4.2418q0-.635-.6604-1.524-.6604-.9144-1.27-1.1684-.8636-.3556-1.3208-.3556h-10.23619q-.2032 0-.4826.2032t-.2794.381v21.0566q0 .1524.2032.3556.2032.2032.3556.2032h5.207q.1778 0 .3556-.1778.2032-.1778.2032-.3556v-6.9596q0-.4318.4572-.4318h.6858q.4572 0 .4572.4572v6.9088q0 .1778.2032.3556.20319.2032.38099.2032h5.1816q.1778 0 .3556-.1778.2032-.1778.2032-.3556zm-6.32459-13.9446q-.1016.1524-.4318.4064h-.7366q-.1524-.1016-.4318-.4318v-.7112q.2286-.4572.6604-.4572h.2794q.4572 0 .6604.4572z"/>
  </g>
</svg>
